<svg xmlns="http://www.w3.org/2000/svg" width="47" height="21" viewBox="0 0 47 21"><g transform="translate(0.3)"><path d="M26.4.4H17.7L-.3,21H26.4V15.2h-13Z"/><path d="M26.4.4H17.7L-.3,21H26.4V15.2h-13Z"/><path d="M41.8,15.2l2.9-3.3a6.743,6.743,0,0,0,1.9-4.7,6.868,6.868,0,0,0-2-4.7A10.512,10.512,0,0,0,37.3,0a10.6,10.6,0,0,0-7.6,2.8,8.546,8.546,0,0,0-2.1,5.3h7.6a2.541,2.541,0,0,1,.5-1.3,1.834,1.834,0,0,1,1.4-.7,2.01,2.01,0,0,1,1.3.4,1.274,1.274,0,0,1,.5,1.1,4.1,4.1,0,0,1-1.3,2.8l-9,10.5H46.7V15.1l-4.9.1Z"/></g></svg>